<svg xmlns="http://www.w3.org/2000/svg" width="820" height="520" viewBox="0 0 820 520" font-family="Segoe UI, Arial, sans-serif">
<rect width="820" height="520" fill="#ffffff"/>
<text x="410" y="32" text-anchor="middle" font-size="20" font-weight="700" fill="#111">Evolución de Ventas Mensuales</text>
<line x1="80" y1="430" x2="780" y2="430" stroke="#444" stroke-width="1.5"/>
<line x1="80" y1="60" x2="80" y2="430" stroke="#444" stroke-width="1.5"/>
<line x1="80" y1="430.0" x2="780" y2="430.0" stroke="#e5e7eb" stroke-width="1"/>
<text x="72" y="434.0" text-anchor="end" font-size="11" fill="#555">0</text>
<line x1="80" y1="297.9" x2="780" y2="297.9" stroke="#e5e7eb" stroke-width="1"/>
<text x="72" y="301.9" text-anchor="end" font-size="11" fill="#555">50</text>
<line x1="80" y1="165.7" x2="780" y2="165.7" stroke="#e5e7eb" stroke-width="1"/>
<text x="72" y="169.7" text-anchor="end" font-size="11" fill="#555">100</text>
<text x="18" y="245" text-anchor="middle" font-size="12" fill="#333" transform="rotate(-90 18 245)">Ventas</text>
<text x="430" y="502" text-anchor="middle" font-size="12" fill="#333">Mes</text>
<rect x="124.3" y="112.9" width="144.7" height="317.1" fill="#2563eb"/>
<text x="196.7" y="106.9" text-anchor="middle" font-size="11" fill="#222">120</text>
<text x="196.7" y="448.0" text-anchor="middle" font-size="11" fill="#444">Enero</text>
<rect x="357.7" y="178.9" width="144.7" height="251.1" fill="#dc2626"/>
<text x="430.0" y="172.9" text-anchor="middle" font-size="11" fill="#222">95</text>
<text x="430.0" y="448.0" text-anchor="middle" font-size="11" fill="#444">Febrero</text>
<rect x="591.0" y="60.0" width="144.7" height="370.0" fill="#16a34a"/>
<text x="663.3" y="54.0" text-anchor="middle" font-size="11" fill="#222">140</text>
<text x="663.3" y="448.0" text-anchor="middle" font-size="11" fill="#444">Marzo</text>
</svg>
